PathFileType  4	(X/Y/Z) C:\Users\antoi\Documents\MyRepositories\mobilecap\ResultsAnalysis
DataRate	CameraRate	NumFrames	NumMarkers	Units	OrigDataRate	OrigDataStartFrame	OrigNumFrames
100.0	100.0	5	51	mm	100.0	83	221
Frame#	Time	r_knee			r_shank_antsup			r_ankle			r_calc			r_5meta			r_toe			L_knee			L_shank_antsup			L_ankle			L_calc			L_5meta			L_toe			r_sh2			r_sh3			r_sh4			L_sh2			L_sh3			r_thigh1			r_thigh2			r_thigh3			r_thigh4			r_thigh5			L_thigh1			L_thigh2			L_thigh3			L_thigh4			r.ASIS			r.PSIS			L.ASIS			L.PSIS			C7			R_Shoulder			L_Shoulder			R_Sternum			L_Sternum			R_humerus			R_elbow_med			R_elbow_lat			R_forearm			R_wrist_radius			R_wrist_ulna			L_humerus			L_elbow_med			L_elbow_lat			L_forearm			L_wrist_radius			L_wrist_ulna			R_HJC			L_HJC			R_HJC_reg			L_HJC_reg			
		X1	Y1	Z1	X2	Y2	Z2	X3	Y3	Z3	X4	Y4	Z4	X5	Y5	Z5	X6	Y6	Z6	X7	Y7	Z7	X8	Y8	Z8	X9	Y9	Z9	X10	Y10	Z10	X11	Y11	Z11	X12	Y12	Z12	X13	Y13	Z13	X14	Y14	Z14	X15	Y15	Z15	X16	Y16	Z16	X17	Y17	Z17	X18	Y18	Z18	X19	Y19	Z19	X20	Y20	Z20	X21	Y21	Z21	X22	Y22	Z22	X23	Y23	Z23	X24	Y24	Z24	X25	Y25	Z25	X26	Y26	Z26	X27	Y27	Z27	X28	Y28	Z28	X29	Y29	Z29	X30	Y30	Z30	X31	Y31	Z31	X32	Y32	Z32	X33	Y33	Z33	X34	Y34	Z34	X35	Y35	Z35	X36	Y36	Z36	X37	Y37	Z37	X38	Y38	Z38	X39	Y39	Z39	X40	Y40	Z40	X41	Y41	Z41	X42	Y42	Z42	X43	Y43	Z43	X44	Y44	Z44	X45	Y45	Z45	X46	Y46	Z46	X47	Y47	Z47	X48	Y48	Z48	X49	Y49	Z49	X50	Y50	Z50	X51	Y51	Z51	

83	0.82000000	-643.90594	726.41865	-421.29047	-677.51933	664.64060	-401.26434	-886.81558	450.64587	-469.05247	-947.85613	470.68533	-526.10665	-861.35930	345.99107	-424.25928	-806.07655	323.09841	-465.39703	-532.44428	792.16482	-746.20752	-517.28796	716.74120	-749.15392	-677.69740	451.20383	-735.42945	-759.51810	446.05936	-693.47169	-612.49540	365.24684	-751.16909	-561.35772	370.90971	-694.40386	-752.57624	579.25534	-409.29381	-730.81339	713.26234	-425.82971	-811.46642	631.67617	-438.60075	-593.86219	759.96514	-769.85783	-640.63557	647.79849	-775.18766	-638.00934	1039.33864	-419.32728	-606.09189	931.27759	-407.91737	-651.85937	897.54538	-371.48515	-737.76430	1015.52751	-369.74515	-708.52607	902.43839	-377.52166	-615.35137	1071.95757	-733.55093	-542.00684	953.79377	-740.56488	-714.02944	1013.80161	-757.73711	-633.05288	896.72608	-759.13440	-657.89793	1176.57859	-428.60271	-831.73909	1217.12245	-504.59412	-653.56570	1194.92441	-674.96532	-833.93215	1222.12983	-613.90404	-719.88703	1670.89674	-524.37285	-686.14395	1637.65076	-406.33624	-659.72534	1671.81107	-652.32985	-605.30321	1579.25043	-510.06545	-597.76389	1584.20734	-553.89037	-652.64182	1565.19812	-198.19085	-636.24826	1458.40826	-130.68403	-655.37857	1536.10711	-115.04603	-550.28277	1574.04458	-153.77834	-448.99668	1596.16713	-197.33140	-430.36377	1582.33272	-159.60028	-587.86495	1642.99141	-740.91570	-532.82008	1499.99607	-910.65953	-521.51496	1564.61947	-925.72727	-410.73090	1555.56016	-885.24564	-301.28114	1508.03579	-852.14939	-290.89518	1506.24392	-887.26686	-729.73305	1110.18487	-461.40238	-719.08438	1126.52515	-660.74359	-723.82960	1109.75465	-464.95117	-727.09698	1117.21543	-627.82192	
84	0.83000000	-625.66703	723.31310	-421.66040	-656.59868	659.30822	-401.53947	-856.79933	435.35655	-468.36478	-919.57932	451.38770	-524.58765	-824.68424	332.27527	-423.78415	-768.14902	313.19382	-465.42786	-522.55668	786.89369	-746.77973	-506.29860	711.75771	-749.62151	-663.09630	443.85323	-737.54614	-744.84870	437.11666	-695.76657	-596.51073	359.25873	-754.19964	-545.34536	365.67064	-697.73389	-727.72335	570.53013	-408.67245	-711.91200	705.09279	-425.78614	-789.29896	620.10578	-437.44231	-583.25257	753.68963	-771.75493	-628.10150	640.75944	-777.57619	-627.31134	1036.44190	-420.38918	-593.20213	928.88856	-409.16946	-637.91637	894.15694	-372.36153	-726.42667	1010.35261	-370.09184	-694.72890	897.85235	-377.77369	-606.80076	1065.98793	-732.93211	-533.00336	948.26474	-739.87528	-704.93191	1007.75453	-758.93353	-623.34700	891.23061	-760.66785	-648.72301	1170.83041	-428.95252	-822.69574	1211.15896	-505.19639	-644.95878	1188.03985	-675.10939	-825.20881	1216.12616	-614.48051	-704.93277	1665.69162	-525.07857	-673.17076	1633.57549	-407.64218	-643.39113	1668.95305	-650.52360	-592.02505	1572.42911	-509.58677	-583.83304	1577.26809	-553.97615	-651.30506	1567.04233	-197.27928	-640.15547	1462.32773	-126.17266	-658.58193	1540.81966	-113.69221	-552.27085	1575.53462	-152.02336	-450.83913	1594.21011	-195.52547	-432.68425	1581.81188	-157.01033	-572.48728	1640.66349	-739.34171	-524.40907	1501.50123	-915.21489	-511.97776	1566.36497	-928.17043	-400.90643	1553.83129	-888.97149	-292.52058	1503.61192	-858.25353	-282.31797	1502.84621	-893.39587	-720.94165	1104.40277	-461.44701	-710.42724	1119.88878	-660.86237	-714.60732	1103.48821	-465.07040	-718.34816	1110.88163	-627.73789	
85	0.84000000	-608.41756	718.99072	-422.37135	-636.35056	652.35180	-401.93577	-825.02921	417.84666	-467.22584	-889.97477	429.61352	-521.84920	-784.97914	316.88106	-423.97749	-727.92516	302.23896	-466.97166	-512.58974	780.89565	-747.82363	-495.44508	706.02511	-750.28747	-648.78390	435.97395	-739.48229	-730.35800	427.63967	-697.76389	-580.76983	352.69278	-756.97431	-529.49522	359.85904	-700.74204	-702.78301	559.66393	-408.81086	-693.69150	695.00550	-425.11560	-767.14689	606.53936	-436.60983	-572.60050	746.73233	-773.72055	-615.78065	633.16514	-779.88258	-616.70920	1032.41991	-421.69792	-580.41731	925.51297	-410.86820	-624.12472	889.91100	-373.51103	-714.96478	1004.31092	-370.39423	-681.01191	892.47566	-377.96251	-598.21609	1059.30727	-732.38557	-524.01388	941.92218	-739.29565	-695.76641	1001.05491	-760.05192	-613.70981	884.88619	-761.83969	-639.12826	1164.50496	-429.60325	-813.41985	1204.32111	-505.47626	-636.63432	1180.30086	-675.50421	-816.57837	1208.92029	-614.47844	-689.53799	1659.70508	-526.13682	-659.70910	1628.34416	-409.01165	-626.52234	1664.74457	-648.29300	-578.29790	1564.84699	-508.90045	-569.64147	1569.40894	-553.91634	-650.75225	1567.80344	-197.31042	-645.55363	1465.00624	-123.08516	-663.08807	1544.43899	-113.71296	-555.34610	1575.34686	-151.14538	-453.41390	1590.48428	-193.59649	-436.01501	1579.55552	-154.23815	-556.87800	1637.54980	-738.17308	-516.42808	1500.93148	-917.86130	-502.57611	1566.63984	-930.57717	-391.50874	1550.14851	-892.82982	-284.12484	1497.47553	-864.85833	-274.28820	1497.39126	-899.74493	-711.60014	1097.88996	-461.33851	-701.94321	1112.28234	-660.87913	-705.00294	1096.75365	-465.06493	-709.70956	1103.60669	-627.49029	
86	0.85000000	-592.14233	713.37986	-423.60183	-616.61703	644.27499	-402.77670	-791.60504	398.76962	-465.56229	-858.80486	406.16925	-518.42430	-743.11268	300.11603	-425.06319	-686.26229	290.52908	-469.73764	-502.68486	774.16622	-749.00296	-484.78015	699.51228	-751.20862	-634.69179	427.48249	-741.37991	-716.07443	417.63745	-699.47003	-565.33272	345.46320	-759.36356	-513.98877	352.99128	-702.92403	-677.63555	547.65239	-409.11468	-676.53782	683.47510	-424.77186	-744.78250	591.06237	-436.06759	-562.14141	739.11389	-775.63054	-603.73169	625.01931	-782.10002	-606.27365	1027.13144	-422.79497	-567.82485	920.92346	-412.70387	-610.40249	884.69303	-374.68801	-703.36266	997.23815	-370.52131	-667.31116	886.16311	-378.14447	-589.53332	1052.03146	-731.95805	-514.97609	934.99661	-738.78606	-686.64435	993.82448	-761.04281	-604.16990	877.77468	-762.56450	-629.26373	1157.33643	-430.59882	-804.00578	1196.63318	-505.41093	-628.43537	1171.89665	-676.44987	-807.93374	1200.70566	-614.07825	-673.82138	1652.72165	-527.46206	-645.60343	1622.25106	-411.13299	-608.96123	1659.08912	-646.13496	-564.53764	1556.11372	-508.54515	-555.22250	1560.57466	-553.56524	-650.81434	1567.37318	-198.43614	-652.33562	1466.32161	-121.64209	-668.84316	1546.78016	-115.20434	-559.56052	1573.48227	-151.29601	-456.70836	1584.94451	-191.68292	-440.34702	1575.41775	-151.46488	-541.23176	1633.01121	-737.27245	-508.70562	1499.31406	-921.17717	-493.41746	1565.35508	-932.89804	-382.46277	1544.78413	-896.90046	-276.32989	1489.04247	-871.79789	-266.81730	1489.53102	-906.44458	-701.82569	1090.49323	-461.37205	-693.61683	1103.91998	-661.04521	-695.25933	1089.36295	-465.25018	-701.12602	1095.44686	-627.57852	
87	0.86000000	-576.46314	706.46521	-425.17636	-597.08670	635.38943	-404.12487	-756.58367	378.97187	-463.62671	-825.97590	381.93882	-514.61925	-699.93336	282.63748	-426.95104	-643.86309	278.51980	-473.42398	-493.00249	766.71917	-750.02608	-474.36547	692.23341	-752.31408	-620.77711	418.25776	-743.00104	-701.84704	406.91474	-700.75737	-550.20433	337.38053	-761.38801	-498.81372	345.09617	-704.70485	-652.25553	535.53858	-409.16020	-660.10400	670.87567	-424.94633	-722.22253	574.15754	-435.34078	-552.05667	730.88601	-777.47069	-592.09589	616.17733	-784.03785	-595.77918	1020.55725	-424.03250	-555.54447	915.17204	-414.60024	-596.65365	878.22969	-375.93490	-691.53697	989.06465	-370.42739	-653.59049	878.68308	-378.40356	-580.85255	1044.26564	-731.57605	-505.92595	927.57898	-738.40260	-677.60488	986.05196	-761.90993	-594.69621	870.21408	-763.48222	-619.34605	1149.24765	-431.70198	-794.48821	1188.07222	-504.92157	-620.17808	1162.90016	-678.12759	-799.32057	1191.63678	-613.41101	-657.92280	1644.53416	-528.59387	-631.14328	1615.45484	-413.56217	-590.78533	1651.84345	-644.06547	-550.49194	1546.32348	-508.14263	-540.62429	1550.63075	-552.84820	-651.43603	1565.66723	-200.58856	-660.53292	1466.46788	-121.72490	-675.64067	1547.68390	-118.21187	-564.86568	1570.05401	-152.24960	-460.79945	1577.49279	-189.91903	-445.72410	1569.26529	-148.93437	-525.53959	1626.37542	-736.33839	-501.42837	1496.30485	-924.38343	-484.61087	1562.42209	-935.08770	-373.87176	1537.60623	-901.17773	-269.55491	1477.14649	-878.74112	-260.03730	1479.25799	-913.64911	-691.76181	1082.16806	-461.60783	-685.40318	1094.90442	-661.39361	-685.40025	1081.03948	-465.57626	-692.64520	1086.38317	-628.21724	
